<?xml version="1.0" encoding="utf-8"?>
<!-- Generator: Adobe Illustrator 22.0.0, SVG Export Plug-In . SVG Version: 6.00 Build 0)  -->
<svg version="1.1" id="Layer_1" xmlns="http://www.w3.org/2000/svg" xmlns:xlink="http://www.w3.org/1999/xlink" x="0px" y="0px"
	 viewBox="0 0 300 300" style="enable-background:new 0 0 300 300;" xml:space="preserve">
<style type="text/css">
	.st0{fill:#E8A48E;}
	.st1{fill:#7FC347;}
	.st2{fill:#4778A9;stroke:#FFFFFF;stroke-width:2;stroke-miterlimit:10;}
	.st3{fill:#FFD250;}
	.st4{fill:#D2232A;stroke:#FFFFFF;stroke-width:2;stroke-miterlimit:10;}
</style>
<path class="st0" d="M154.9,128.5l-31,13.1c-6.9,1-14.2-6.1-8.8-11.5l23.2-16.5c0.2-0.2,0.5-0.3,0.8-0.4l24.2-8.2
	c0.9-0.3,1.8-0.2,2.7,0.2l29.5,14.3c1.3,0.6,2.9,0.7,4.3,0.2l8.7-3.5c0.8-0.3,1.7,0,2.1,0.7l21.3,37.2c0.6,1,0.3,2.3-0.6,2.9
	l-18.6,13.4c-1.1,0.8-2.6,0.8-3.7-0.1l-52.4-41.6C156.2,128.3,155.5,128.2,154.9,128.5z"/>
<path class="st1" d="M49.4,150.4l-9.6-5c-7-3.6-9.7-12.3-6.1-19.3l10.8-20.7c3.6-7,12.3-9.7,19.3-6.1l9.6,5c7,3.6,9.7,12.3,6.1,19.3
	l-10.8,20.7C65.1,151.3,56.4,154.1,49.4,150.4z"/>
<path class="st2" d="M43,147l-3.1-1.6c-7-3.6-9.7-12.3-6.1-19.3l10.8-20.7c3.6-7,12.3-9.7,19.3-6.1l3.1,1.6c7,3.6,9.7,12.3,6.1,19.3
	L62.3,141C58.7,148,50,150.7,43,147z"/>
<path class="st3" d="M252.1,150.4l9.6-5c7-3.6,9.7-12.3,6.1-19.3l-10.8-20.7c-3.6-7-12.3-9.7-19.3-6.1l-9.6,5
	c-7,3.6-9.7,12.3-6.1,19.3l10.8,20.7C236.4,151.3,245.1,154.1,252.1,150.4z"/>
<path class="st4" d="M257.5,147.5l4.1-2.1c7-3.6,9.7-12.3,6.1-19.3l-10.8-20.7c-3.6-7-12.3-9.7-19.3-6.1l-4.1,2.1
	c-7,3.6-9.7,12.3-6.1,19.3l10.8,20.7C241.8,148.4,250.5,151.1,257.5,147.5z"/>
<path class="st0" d="M68.4,154.1l20.8-37.3c0.5-0.8,1.4-1.2,2.3-0.8l10.8,4.1c0.7-0.1,1.3-0.2,1.7-0.2l22.6-7.1
	c3.4-1.2,5.7-1.2,7-0.1c1.3,0.6-10.4,8.4-19.9,15c-8.1,6.4-1.5,18.2,10.1,16.9c4.9-1.5,16-6.6,28.7-11.8c2-1,3.4-0.2,5.4,1.2
	l48.4,38.3c7.4,6.1-2.2,15.5-8.8,8.8l-40.8-32.2c-2.5-1.5-4.4,1-2.2,2.5l34.9,27.5c8.1,5.9,0,16.5-7.9,9.8l-35.1-27.8
	c-2.2-1-3.4,1.2-1.7,2.5l29,23.3c6.9,5.9-1,15.5-8.1,9.6l-14-11.1c0-6.6-4.7-10.8-11.3-8.8l-3.2-2.7c-3.4-7.4-11.5-6.6-14.7-2
	c-2.2-7.6-10.8-8.8-15.7-2.9c-2.5-7.9-13-9.6-16.7-0.2l-21-12.4C68.2,155.7,68,154.8,68.4,154.1z"/>
<path class="st0" d="M95,179.7L95,179.7c-3.2-1.3-4.9-4.9-3.6-8.2l1-2.7c1.3-3.2,4.9-4.9,8.2-3.6h0c3.2,1.3,4.9,4.9,3.6,8.2l-1,2.7
	C101.9,179.4,98.2,181,95,179.7z"/>
<path class="st0" d="M108.9,187.5L108.9,187.5c-3.3-1.1-5-4.7-3.9-8l2.7-7.7c1.1-3.3,4.7-5,8-3.9h0c3.3,1.1,5,4.7,3.9,8l-2.7,7.7
	C115.8,186.9,112.1,188.7,108.9,187.5z"/>
<path class="st0" d="M122.8,195.9L122.8,195.9c-3.3-1.1-5-4.7-3.9-8l4.5-13.1c1.1-3.3,4.7-5,8-3.9v0c3.3,1.1,5,4.7,3.9,8l-4.5,13.1
	C129.6,195.3,126,197,122.8,195.9z"/>
<path class="st0" d="M136.3,203.7L136.3,203.7c-3.3-1.1-5-4.7-3.9-8l4.5-13.1c1.1-3.3,4.7-5,8-3.9h0c3.3,1.1,5,4.7,3.9,8l-4.5,13.1
	C143.1,203.1,139.5,204.9,136.3,203.7z"/>
<path class="st0" d="M150.8,188.6l6.6,5.4c2.6,3.3,1.6,7.9-1.9,9.8c-0.3,0.2-0.7,0.3-1.1,0.3h-3.6c-0.5,0-1-0.2-1.4-0.5l-3.1-2.5
	L150.8,188.6z"/>
</svg>