<?xml version="1.0" encoding="utf-8"?>
<!-- Generator: Adobe Illustrator 23.0.2, SVG Export Plug-In . SVG Version: 6.00 Build 0)  -->
<svg version="1.1" xmlns="http://www.w3.org/2000/svg" xmlns:xlink="http://www.w3.org/1999/xlink" x="0px" y="0px"
	 viewBox="0 0 595.28 841.89" style="enable-background:new 0 0 595.28 841.89;" xml:space="preserve">
<style type="text/css">
	.st0{fill:#42CCFF;}
	.st1{fill:#AFAFAF;}
	.st2{fill:#00379D;}
</style>
<g>
	<path class="st0" d="M297.86,416.36C297.86,416.36,297.86,416.36,297.86,416.36c-0.37,0-0.72,0.14-0.98,0.4l-2.39,2.39
		c-0.26,0.26-0.4,0.61-0.4,0.98c0,0.37,0.14,0.71,0.4,0.97c0.26,0.26,0.61,0.4,0.97,0.4c0,0,0,0,0,0c0.37,0,0.71-0.14,0.98-0.4
		l2.39-2.39c0.26-0.26,0.4-0.61,0.4-0.98c0-0.37-0.14-0.71-0.4-0.97C298.58,416.5,298.23,416.36,297.86,416.36z"/>
	<path class="st0" d="M305.5,397.44c0-0.37-0.14-0.71-0.4-0.98c-0.54-0.54-1.41-0.54-1.95,0l-19.69,19.69
		c-0.54,0.54-0.54,1.41,0,1.95c0.26,0.26,0.61,0.4,0.98,0.4c0,0,0,0,0,0c0.37,0,0.71-0.14,0.97-0.4l19.69-19.69
		C305.36,398.15,305.5,397.8,305.5,397.44z"/>
	<path class="st0" d="M308,407.61c-0.54-0.54-1.41-0.54-1.95,0l-4.6,4.6c-0.26,0.26-0.4,0.61-0.41,0.97c0,0.37,0.14,0.71,0.4,0.98
		c0.27,0.27,0.62,0.4,0.98,0.4c0.35,0,0.71-0.13,0.97-0.4l4.6-4.6C308.53,409.02,308.53,408.14,308,407.61z"/>
</g>
<g>
	<path class="st1" d="M264.66,442.64L264.66,442.64l-1.63-0.34c-1.33-0.27-2.67,0.38-3.25,1.61l-2.55,5.38
		c-0.38,0.79-0.37,1.71,0.02,2.52c0.39,0.81,1.1,1.39,1.95,1.59l3.94,0.94c0.22,0.05,0.44,0.08,0.67,0.08c0.63,0,1.25-0.21,1.78-0.6
		c0.71-0.54,1.14-1.34,1.17-2.21l0.24-5.98C267.05,444.19,266.07,442.94,264.66,442.64z M264.13,451.5l-0.33,0.05l-3.94-0.94
		l-0.06,0.24l0,0l0.01-0.34l2.55-5.38c0.01-0.02,0.06-0.05,0.07-0.04l1.64,0.34c0.03,0.01,0.05,0.03,0.05,0.07l-0.24,5.98
		L264.13,451.5L264.13,451.5z"/>
	<path class="st1" d="M280.08,446.6l-2.62-3.62c-0.77-1.07-2.21-1.43-3.43-0.87l-0.95,0.45c-1.16,0.55-1.79,1.86-1.5,3.12l1,4.3
		c0.18,0.79,0.72,1.46,1.46,1.83c0.4,0.2,0.83,0.3,1.25,0.3c0.37,0,0.75-0.08,1.09-0.23l2.57-1.14c0.75-0.33,1.31-0.99,1.53-1.81
		C280.71,448.12,280.56,447.27,280.08,446.6z M277.68,448.17l-2.33,1.03l-0.95-4.09l0.79-0.38L277.68,448.17z"/>
</g>
<g>
	<path class="st1" d="M343.86,372.24c-0.39-0.81-1.1-1.39-1.95-1.59l-3.94-0.94c-0.85-0.2-1.74-0.01-2.45,0.53
		c-0.71,0.54-1.13,1.34-1.17,2.21l-0.24,5.98c-0.06,1.44,0.92,2.69,2.33,2.99l1.64,0.34c0.2,0.04,0.41,0.06,0.61,0.06
		c1.11,0,2.15-0.64,2.64-1.68l2.55-5.38C344.26,373.97,344.25,373.05,343.86,372.24z M341.29,373.53l-2.55,5.38
		c-0.01,0.02-0.07,0.05-0.07,0.04l-1.64-0.34c-0.03-0.01-0.05-0.03-0.05-0.07l0.24-5.98l0.08-0.06l3.94,0.94L341.29,373.53z"/>
	<path class="st1" d="M327.51,374.07c-0.18-0.79-0.72-1.46-1.46-1.83c-0.75-0.37-1.6-0.4-2.34-0.07l-2.57,1.14
		c-0.75,0.33-1.31,0.99-1.53,1.81c-0.22,0.81-0.07,1.67,0.41,2.33l2.62,3.62c0.53,0.73,1.37,1.13,2.24,1.13
		c0.4,0,0.8-0.08,1.18-0.26l0.95-0.45c1.16-0.55,1.79-1.87,1.5-3.12L327.51,374.07z M325.7,378.94l-0.79,0.38l-2.49-3.44l2.33-1.03
		L325.7,378.94z"/>
</g>
<path class="st2" d="M344.63,386.64l-5.67-0.47c-0.54-0.05-1.06,0.13-1.46,0.49c-0.41,0.37-0.64,0.91-0.65,1.5
	c-0.01,0.97,0.75,1.79,1.74,1.88l5.86,0.49l0.11,0c4.49,0,7.84,4.67,7.84,8.84v17.85c0,4.32-3.52,7.84-7.9,7.84l-93.86,10.84
	c-4.28-0.04-7.76-3.55-7.76-7.84v-37.54c0-4.3,3.5-7.82,7.75-7.84l74.71,6.25c0.99,0.08,1.88-0.61,2.01-1.61
	c0.08-0.55-0.08-1.12-0.42-1.55c-0.34-0.42-0.82-0.67-1.36-0.72l-74.74-6.25l-0.11,0c-6.46,0-11.72,5.26-11.72,11.72v37.49
	c0,6.49,5.28,11.76,11.82,11.76c0,0,0,0,0.01,0l93.79-10.84c6.44-0.03,11.67-5.29,11.67-11.72v-17.85
	C356.28,392.62,350.84,386.68,344.63,386.64z"/>
</svg>
